<svg width="21" height="21" viewBox="0 0 21 21" fill="none" xmlns="http://www.w3.org/2000/svg">
<g clip-path="url(#clip0_224_756)">
<path d="M17.6664 6.72986C16.4466 6.72986 15.7652 7.94123 16.0428 8.84134L13.0564 11.8361C12.8041 11.7604 12.4339 11.7604 12.1816 11.8361L10.0364 9.69099C10.3225 8.79087 9.64105 7.57109 8.41286 7.57109C7.19308 7.57109 6.50327 8.78246 6.78929 9.69099L2.95328 13.5186C2.05317 13.241 0.841797 13.9224 0.841797 15.1422C0.841797 16.0675 1.5989 16.8246 2.52426 16.8246C3.74404 16.8246 4.42543 15.6132 4.14783 14.7131L7.97542 10.8771C8.22779 10.9528 8.59793 10.9528 8.8503 10.8771L10.9954 13.0223C10.7094 13.9224 11.3908 15.1422 12.619 15.1422C13.8388 15.1422 14.5286 13.9308 14.2426 13.0223L17.2374 10.0359C18.1375 10.3135 19.3488 9.6321 19.3488 8.41232C19.3488 7.48696 18.5917 6.72986 17.6664 6.72986Z" fill="white" fill-opacity="0.8"/>
<path d="M12.6194 7.57106L13.4101 5.82971L15.1431 5.04737L13.4101 4.26503L12.6194 2.52368L11.8455 4.26503L10.0957 5.04737L11.8455 5.82971L12.6194 7.57106Z" fill="white" fill-opacity="0.8"/>
<path d="M2.94487 9.25363L3.36548 7.57117L5.04794 7.15056L3.36548 6.72994L2.94487 5.04749L2.52426 6.72994L0.841797 7.15056L2.52426 7.57117L2.94487 9.25363Z" fill="white" fill-opacity="0.8"/>
</g>
<defs>
<clipPath id="clip0_224_756">
<rect width="20.1895" height="20.1895" fill="white"/>
</clipPath>
</defs>
</svg>
